<svg width="30" height="30" viewBox="0 0 30 30" fill="none" xmlns="http://www.w3.org/2000/svg">
<path d="M25.7257 0H3.67509C2.7004 0 1.76562 0.387196 1.07641 1.07641C0.387196 1.76562 0 2.7004 0 3.67509V25.7257C0 26.7004 0.387196 27.6351 1.07641 28.3243C1.76562 29.0136 2.7004 29.4008 3.67509 29.4008H25.7257C26.7004 29.4008 27.6351 29.0136 28.3243 28.3243C29.0136 27.6351 29.4008 26.7004 29.4008 25.7257V3.67509C29.4008 2.7004 29.0136 1.76562 28.3243 1.07641C27.6351 0.387196 26.7004 0 25.7257 0ZM14.7004 4.59387C15.9187 4.59387 17.0872 5.07786 17.9487 5.93938C18.8103 6.8009 19.2942 7.96937 19.2942 9.18774C19.2942 10.4061 18.8103 11.5746 17.9487 12.4361C17.0872 13.2976 15.9187 13.7816 14.7004 13.7816C13.482 13.7816 12.3135 13.2976 11.452 12.4361C10.5905 11.5746 10.1065 10.4061 10.1065 9.18774C10.1065 7.96937 10.5905 6.8009 11.452 5.93938C12.3135 5.07786 13.482 4.59387 14.7004 4.59387ZM23.8881 23.8881H5.51264V23.4287C5.51264 20.0311 9.65447 16.5379 14.7004 16.5379C19.7463 16.5379 23.8881 20.0311 23.8881 23.4287V23.8881Z" fill="#FDCA01"/>
</svg>
