<svg width="30" height="30" viewBox="0 0 30 30" fill="none" xmlns="http://www.w3.org/2000/svg">
<path d="M26.4609 0H8.82045C8.04069 0 7.29287 0.309757 6.7415 0.861128C6.19013 1.4125 5.88037 2.16032 5.88037 2.94008V20.5805C5.88037 21.3603 6.19013 22.1081 6.7415 22.6595C7.29287 23.2108 8.04069 23.5206 8.82045 23.5206H26.4609C27.2407 23.5206 27.9885 23.2108 28.5398 22.6595C29.0912 22.1081 29.401 21.3603 29.401 20.5805V2.94008C29.401 2.16032 29.0912 1.4125 28.5398 0.861128C27.9885 0.309757 27.2407 0 26.4609 0Z" fill="#FDCA01"/>
<path d="M2.94008 8.82022H0V26.4607C0 28.0821 1.31862 29.4008 2.94008 29.4008H20.5805V26.4607H2.94008V8.82022Z" fill="#FDCA01"/>
</svg>
