<svg width="34" height="25" viewBox="0 0 34 25" fill="none" xmlns="http://www.w3.org/2000/svg">
<path d="M24.2556 6.83568V6.06391C24.2556 2.60472 19.0462 0 12.1278 0C5.20945 0 0 2.60472 0 6.06391V11.5765C0 14.4569 3.61078 16.7447 8.82023 17.4337V18.1917C8.82023 21.6509 14.0297 24.2556 20.948 24.2556C27.8664 24.2556 33.0759 21.6509 33.0759 18.1917V12.6791C33.0759 9.82628 29.5753 7.53854 24.2556 6.83568ZM8.82023 15.1873V11.9211C9.91707 12.062 11.022 12.1311 12.1278 12.1278C13.2337 12.1311 14.3386 12.062 15.4354 11.9211V15.1873C14.3412 15.3578 13.2352 15.4408 12.1278 15.4354C11.0204 15.4408 9.91441 15.3578 8.82023 15.1873ZM22.0506 9.63334V11.5765C22.0506 12.7342 20.3417 13.9745 17.6405 14.7325V11.5076C19.4183 11.0804 20.9205 10.4327 22.0506 9.63334ZM2.20506 11.5765V9.63334C3.33515 10.4327 4.83734 11.0804 6.61517 11.5076V14.7325C3.91398 13.9745 2.20506 12.7342 2.20506 11.5765ZM11.0253 18.1917V17.6129L12.1278 17.6405C12.6699 17.6405 13.1936 17.6267 13.6989 17.5991C14.2502 17.7921 14.829 17.9574 15.4354 18.109V21.3477C12.7342 20.5897 11.0253 19.3494 11.0253 18.1917ZM17.6405 21.8025V18.5225C18.7372 18.6664 19.8419 18.74 20.948 18.743C22.0539 18.7463 23.1588 18.6772 24.2556 18.5363V21.8025C22.063 22.1333 19.8331 22.1333 17.6405 21.8025ZM26.4607 21.3477V18.1228C28.2385 17.6956 29.7407 17.0478 30.8708 16.2485V18.1917C30.8708 19.3494 29.1619 20.5897 26.4607 21.3477Z" fill="#FDCA01"/>
</svg>
