<svg width="44" height="33" viewBox="0 0 44 33" fill="none" xmlns="http://www.w3.org/2000/svg">
<path d="M37.2476 2.7369C34.4427 1.47198 31.4361 0.53704 28.2921 0.00540828C28.2641 3.31479e-05 28.2351 0.00349708 28.2091 0.0153211C28.1832 0.0271451 28.1616 0.0467442 28.1472 0.071404C27.7622 0.747859 27.3333 1.62963 27.0326 2.32626C23.698 1.82806 20.308 1.82806 16.9734 2.32626C16.6385 1.55422 16.2609 0.801434 15.8423 0.071404C15.8281 0.0464406 15.8066 0.0263981 15.7807 0.0139513C15.7548 0.00150445 15.7258 -0.00275498 15.6974 0.00174169C12.5552 0.533373 9.5486 1.46831 6.74185 2.73506C6.71771 2.74519 6.69724 2.76246 6.68319 2.78456C0.97802 11.1715 -0.585769 19.3513 0.182376 27.4284C0.184513 27.4482 0.190654 27.4674 0.200424 27.4847C0.210195 27.502 0.22339 27.5172 0.239208 27.5293C3.56916 29.9536 7.28329 31.8003 11.2261 32.9922C11.2535 33.0007 11.2829 33.0007 11.3104 32.9922C11.3379 32.9837 11.3622 32.9671 11.3801 32.9446C12.2285 31.8099 12.9803 30.6062 13.6277 29.346C13.6366 29.3287 13.6418 29.3098 13.6428 29.2904C13.6439 29.271 13.6407 29.2516 13.6336 29.2335C13.6264 29.2154 13.6155 29.1991 13.6015 29.1856C13.5875 29.1721 13.5708 29.1618 13.5525 29.1553C12.3682 28.7094 11.2207 28.1712 10.1206 27.5458C10.1008 27.5345 10.0842 27.5185 10.0721 27.4992C10.0601 27.4798 10.053 27.4579 10.0515 27.4351C10.0501 27.4124 10.0543 27.3897 10.0638 27.369C10.0733 27.3483 10.0878 27.3303 10.1059 27.3166C10.3369 27.1461 10.5679 26.9683 10.7879 26.7905C10.8077 26.7745 10.8316 26.7643 10.8568 26.7611C10.8821 26.7578 10.9077 26.7617 10.9309 26.7722C18.1302 30.0059 25.9271 30.0059 33.0421 26.7722C33.0654 26.761 33.0913 26.7567 33.1169 26.7596C33.1425 26.7625 33.1668 26.7726 33.1869 26.7886C33.4069 26.9683 33.6361 27.1461 33.8689 27.3166C33.8872 27.33 33.902 27.3478 33.9118 27.3683C33.9216 27.3888 33.9261 27.4114 33.925 27.4341C33.9239 27.4568 33.9172 27.4789 33.9055 27.4984C33.8938 27.5179 33.8774 27.5342 33.8579 27.5458C32.7616 28.1764 31.6213 28.7099 30.4242 29.1535C30.4058 29.1602 30.389 29.1707 30.375 29.1843C30.361 29.198 30.3501 29.2145 30.343 29.2327C30.3359 29.2509 30.3328 29.2705 30.3338 29.29C30.3348 29.3095 30.34 29.3286 30.349 29.346C31.009 30.6054 31.7643 31.8043 32.5948 32.9427C32.612 32.9661 32.6361 32.9836 32.6637 32.9928C32.6912 33.0019 32.7209 33.0024 32.7488 32.9941C36.6983 31.8055 40.4185 29.9579 43.7521 27.5293C43.7684 27.5179 43.782 27.5032 43.7921 27.4861C43.8023 27.469 43.8086 27.45 43.8108 27.4303C44.7274 18.0919 42.2745 9.97809 37.3045 2.78823C37.2923 2.76486 37.2721 2.74665 37.2476 2.7369ZM14.7038 22.5099C12.5369 22.5099 10.7494 20.5502 10.7494 18.1469C10.7494 15.7417 12.502 13.7838 14.7038 13.7838C16.9221 13.7838 18.693 15.7582 18.6582 18.1469C18.6582 20.5521 16.9056 22.5099 14.7038 22.5099ZM29.3242 22.5099C27.1554 22.5099 25.3698 20.5502 25.3698 18.1469C25.3698 15.7417 27.1206 13.7838 29.3242 13.7838C31.5425 13.7838 33.3134 15.7582 33.2786 18.1469C33.2786 20.5521 31.5443 22.5099 29.3242 22.5099Z" fill="black"/>
<path d="M37.2476 2.7369C34.4427 1.47198 31.4361 0.53704 28.2921 0.00540828C28.2641 3.31479e-05 28.2351 0.00349708 28.2091 0.0153211C28.1832 0.0271451 28.1616 0.0467442 28.1472 0.071404C27.7622 0.747859 27.3333 1.62963 27.0326 2.32626C23.698 1.82806 20.308 1.82806 16.9734 2.32626C16.6385 1.55422 16.2609 0.801434 15.8423 0.071404C15.8281 0.0464406 15.8066 0.0263981 15.7807 0.0139513C15.7548 0.00150445 15.7258 -0.00275498 15.6974 0.00174169C12.5552 0.533373 9.5486 1.46831 6.74185 2.73506C6.71771 2.74519 6.69724 2.76246 6.68319 2.78456C0.97802 11.1715 -0.585769 19.3513 0.182376 27.4284C0.184513 27.4482 0.190654 27.4674 0.200424 27.4847C0.210195 27.502 0.22339 27.5172 0.239208 27.5293C3.56916 29.9536 7.28329 31.8003 11.2261 32.9922C11.2535 33.0007 11.2829 33.0007 11.3104 32.9922C11.3379 32.9837 11.3622 32.9671 11.3801 32.9446C12.2285 31.8099 12.9803 30.6062 13.6277 29.346C13.6366 29.3287 13.6418 29.3098 13.6428 29.2904C13.6439 29.271 13.6407 29.2516 13.6336 29.2335C13.6264 29.2154 13.6155 29.1991 13.6015 29.1856C13.5875 29.1721 13.5708 29.1618 13.5525 29.1553C12.3682 28.7094 11.2207 28.1712 10.1206 27.5458C10.1008 27.5345 10.0842 27.5185 10.0721 27.4992C10.0601 27.4798 10.053 27.4579 10.0515 27.4351C10.0501 27.4124 10.0543 27.3897 10.0638 27.369C10.0733 27.3483 10.0878 27.3303 10.1059 27.3166C10.3369 27.1461 10.5679 26.9683 10.7879 26.7905C10.8077 26.7745 10.8316 26.7643 10.8568 26.7611C10.8821 26.7578 10.9077 26.7617 10.9309 26.7722C18.1302 30.0059 25.9271 30.0059 33.0421 26.7722C33.0654 26.761 33.0913 26.7567 33.1169 26.7596C33.1425 26.7625 33.1668 26.7726 33.1869 26.7886C33.4069 26.9683 33.6361 27.1461 33.8689 27.3166C33.8872 27.33 33.902 27.3478 33.9118 27.3683C33.9216 27.3888 33.9261 27.4114 33.925 27.4341C33.9239 27.4568 33.9172 27.4789 33.9055 27.4984C33.8938 27.5179 33.8774 27.5342 33.8579 27.5458C32.7616 28.1764 31.6213 28.7099 30.4242 29.1535C30.4058 29.1602 30.389 29.1707 30.375 29.1843C30.361 29.198 30.3501 29.2145 30.343 29.2327C30.3359 29.2509 30.3328 29.2705 30.3338 29.29C30.3348 29.3095 30.34 29.3286 30.349 29.346C31.009 30.6054 31.7643 31.8043 32.5948 32.9427C32.612 32.9661 32.6361 32.9836 32.6637 32.9928C32.6912 33.0019 32.7209 33.0024 32.7488 32.9941C36.6983 31.8055 40.4185 29.9579 43.7521 27.5293C43.7684 27.5179 43.782 27.5032 43.7921 27.4861C43.8023 27.469 43.8086 27.45 43.8108 27.4303C44.7274 18.0919 42.2745 9.97809 37.3045 2.78823C37.2923 2.76486 37.2721 2.74665 37.2476 2.7369ZM14.7038 22.5099C12.5369 22.5099 10.7494 20.5502 10.7494 18.1469C10.7494 15.7417 12.502 13.7838 14.7038 13.7838C16.9221 13.7838 18.693 15.7582 18.6582 18.1469C18.6582 20.5521 16.9056 22.5099 14.7038 22.5099ZM29.3242 22.5099C27.1554 22.5099 25.3698 20.5502 25.3698 18.1469C25.3698 15.7417 27.1206 13.7838 29.3242 13.7838C31.5425 13.7838 33.3134 15.7582 33.2786 18.1469C33.2786 20.5521 31.5443 22.5099 29.3242 22.5099Z" fill="#FDCA01"/>
<path d="M37.2476 2.7369C34.4427 1.47198 31.4361 0.53704 28.2921 0.00540828C28.2641 3.31479e-05 28.2351 0.00349708 28.2091 0.0153211C28.1832 0.0271451 28.1616 0.0467442 28.1472 0.071404C27.7622 0.747859 27.3333 1.62963 27.0326 2.32626C23.698 1.82806 20.308 1.82806 16.9734 2.32626C16.6385 1.55422 16.2609 0.801434 15.8423 0.071404C15.8281 0.0464406 15.8066 0.0263981 15.7807 0.0139513C15.7548 0.00150445 15.7258 -0.00275498 15.6974 0.00174169C12.5552 0.533373 9.5486 1.46831 6.74185 2.73506C6.71771 2.74519 6.69724 2.76246 6.68319 2.78456C0.97802 11.1715 -0.585769 19.3513 0.182376 27.4284C0.184513 27.4482 0.190654 27.4674 0.200424 27.4847C0.210195 27.502 0.22339 27.5172 0.239208 27.5293C3.56916 29.9536 7.28329 31.8003 11.2261 32.9922C11.2535 33.0007 11.2829 33.0007 11.3104 32.9922C11.3379 32.9837 11.3622 32.9671 11.3801 32.9446C12.2285 31.8099 12.9803 30.6062 13.6277 29.346C13.6366 29.3287 13.6418 29.3098 13.6428 29.2904C13.6439 29.271 13.6407 29.2516 13.6336 29.2335C13.6264 29.2154 13.6155 29.1991 13.6015 29.1856C13.5875 29.1721 13.5708 29.1618 13.5525 29.1553C12.3682 28.7094 11.2207 28.1712 10.1206 27.5458C10.1008 27.5345 10.0842 27.5185 10.0721 27.4992C10.0601 27.4798 10.053 27.4579 10.0515 27.4351C10.0501 27.4124 10.0543 27.3897 10.0638 27.369C10.0733 27.3483 10.0878 27.3303 10.1059 27.3166C10.3369 27.1461 10.5679 26.9683 10.7879 26.7905C10.8077 26.7745 10.8316 26.7643 10.8568 26.7611C10.8821 26.7578 10.9077 26.7617 10.9309 26.7722C18.1302 30.0059 25.9271 30.0059 33.0421 26.7722C33.0654 26.761 33.0913 26.7567 33.1169 26.7596C33.1425 26.7625 33.1668 26.7726 33.1869 26.7886C33.4069 26.9683 33.6361 27.1461 33.8689 27.3166C33.8872 27.33 33.902 27.3478 33.9118 27.3683C33.9216 27.3888 33.9261 27.4114 33.925 27.4341C33.9239 27.4568 33.9172 27.4789 33.9055 27.4984C33.8938 27.5179 33.8774 27.5342 33.8579 27.5458C32.7616 28.1764 31.6213 28.7099 30.4242 29.1535C30.4058 29.1602 30.389 29.1707 30.375 29.1843C30.361 29.198 30.3501 29.2145 30.343 29.2327C30.3359 29.2509 30.3328 29.2705 30.3338 29.29C30.3348 29.3095 30.34 29.3286 30.349 29.346C31.009 30.6054 31.7643 31.8043 32.5948 32.9427C32.612 32.9661 32.6361 32.9836 32.6637 32.9928C32.6912 33.0019 32.7209 33.0024 32.7488 32.9941C36.6983 31.8055 40.4185 29.9579 43.7521 27.5293C43.7684 27.5179 43.782 27.5032 43.7921 27.4861C43.8023 27.469 43.8086 27.45 43.8108 27.4303C44.7274 18.0919 42.2745 9.97809 37.3045 2.78823C37.2923 2.76486 37.2721 2.74665 37.2476 2.7369ZM14.7038 22.5099C12.5369 22.5099 10.7494 20.5502 10.7494 18.1469C10.7494 15.7417 12.502 13.7838 14.7038 13.7838C16.9221 13.7838 18.693 15.7582 18.6582 18.1469C18.6582 20.5521 16.9056 22.5099 14.7038 22.5099ZM29.3242 22.5099C27.1554 22.5099 25.3698 20.5502 25.3698 18.1469C25.3698 15.7417 27.1206 13.7838 29.3242 13.7838C31.5425 13.7838 33.3134 15.7582 33.2786 18.1469C33.2786 20.5521 31.5443 22.5099 29.3242 22.5099Z" fill="url(#paint0_linear_2_470)"/>
<defs>
<linearGradient id="paint0_linear_2_470" x1="6.28571" y1="-9.42857" x2="20.2402" y2="32.8579" gradientUnits="userSpaceOnUse">
<stop stop-color="white"/>
<stop offset="1" stop-color="white" stop-opacity="0"/>
</linearGradient>
</defs>
</svg>
