<svg width="34" height="31" viewBox="0 0 34 31" fill="none" xmlns="http://www.w3.org/2000/svg">
<path d="M16.5377 4.41011C18.8172 4.41011 20.7211 2.63366 20.9478 0.413448C20.9685 0.206724 20.7411 0 20.5343 0C20.4226 0.000111018 20.3118 0.0211457 20.2077 0.0620173C20.1939 0.06753 18.7538 0.620172 16.5377 0.620172C14.3216 0.620172 12.8787 0.0689081 12.8676 0.0620173C12.7502 0.0211618 12.6268 0.000201146 12.5024 0H12.4983C12.4468 0.00272995 12.3963 0.015599 12.3498 0.0378697C12.3032 0.0601404 12.2616 0.0913749 12.2271 0.129783C12.1927 0.168191 12.1662 0.213018 12.1491 0.261695C12.132 0.310372 12.1247 0.361941 12.1276 0.413448C12.3584 2.62953 14.2637 4.41011 16.5377 4.41011Z" fill="#FDCA01"/>
<path d="M32.3381 3.98956L23.429 0.870786C23.3908 0.857477 23.3502 0.852715 23.31 0.856837C23.2699 0.860958 23.2311 0.873863 23.1964 0.894638C23.1618 0.915413 23.1321 0.94355 23.1095 0.977057C23.087 1.01056 23.0721 1.04862 23.0658 1.08854C22.8081 2.63281 22.0109 4.03561 20.8162 5.04746C19.6215 6.0593 18.1066 6.6146 16.5409 6.6146C14.9753 6.6146 13.4604 6.0593 12.2657 5.04746C11.0709 4.03561 10.2738 2.63281 10.016 1.08854C10.01 1.04796 9.99495 1.00924 9.97204 0.975207C9.94913 0.941175 9.9189 0.912687 9.88358 0.891822C9.84825 0.870957 9.80872 0.858241 9.76785 0.854602C9.72699 0.850963 9.68582 0.856492 9.64737 0.870786L0.738248 3.98956C0.488888 4.07686 0.279164 4.25079 0.147255 4.4797C0.0153466 4.70861 -0.0299762 4.97728 0.0195375 5.2368L1.16548 11.3007C1.20958 11.5318 1.32647 11.7428 1.49905 11.9027C1.67164 12.0627 1.89087 12.1632 2.12468 12.1896L5.4929 12.57C5.6304 12.5855 5.75703 12.6521 5.84767 12.7567C5.9383 12.8612 5.98631 12.996 5.98215 13.1343L5.47705 29.7343C5.47036 29.9482 5.52608 30.1595 5.63743 30.3423C5.74878 30.5251 5.91094 30.6716 6.10412 30.7638C6.26469 30.8363 6.43922 30.8728 6.61541 30.8706H26.4609C26.6371 30.8728 26.8116 30.8363 26.9722 30.7638C27.1654 30.6716 27.3276 30.5251 27.4389 30.3423C27.5503 30.1595 27.606 29.9482 27.5993 29.7343L27.0942 13.1343C27.09 12.996 27.138 12.8612 27.2287 12.7567C27.3193 12.6521 27.4459 12.5855 27.5834 12.57L30.9517 12.1896C31.1855 12.1632 31.4047 12.0627 31.5773 11.9027C31.7499 11.7428 31.8668 11.5318 31.9109 11.3007L33.0568 5.2368C33.1063 4.97728 33.061 4.70861 32.9291 4.4797C32.7972 4.25079 32.5875 4.07686 32.3381 3.98956Z" fill="#FDCA01"/>
</svg>
