<svg xmlns="http://www.w3.org/2000/svg" width="200" height="20" viewBox="0 0 200 21" fill="none">
  <path d="M15.2779 0.535483V5.55296H5.63762V8.17445H14.6578V12.9101H5.63762V20.6054H0V0.535483H15.2779Z" fill="white"></path> <path d="M34.5678 18.1812C32.6323 20.098 30.0859 21.0564 26.9289 21.0564C23.7718 21.0564 21.2255 20.098 19.2899 18.1812C17.3543 16.302 16.3865 13.7651 16.3865 10.5704C16.3865 7.39458 17.3543 4.84826 19.2899 2.93147C21.2443 1.03347 23.7906 0.0844727 26.9289 0.0844727C30.0672 0.0844727 32.6135 1.03347 34.5678 2.93147C36.5034 4.84826 37.4712 7.39458 37.4712 10.5704C37.4712 13.7651 36.5034 16.302 34.5678 18.1812ZM23.5181 14.6859C24.3638 15.6819 25.5007 16.1799 26.9289 16.1799C28.3571 16.1799 29.494 15.6819 30.3396 14.6859C31.1853 13.7087 31.6081 12.3369 31.6081 10.5704C31.6081 8.84157 31.1853 7.47915 30.3396 6.48317C29.494 5.4684 28.3571 4.96101 26.9289 4.96101C25.5007 4.96101 24.3638 5.4684 23.5181 6.48317C22.6725 7.47915 22.2497 8.84157 22.2497 10.5704C22.2497 12.3369 22.6725 13.7087 23.5181 14.6859Z" fill="white"></path>
  <path d="M56.416 15.898L56.5288 18.5759C56.5664 19.4027 56.7355 20.0792 57.0362 20.6054H51.2294C51.0039 20.1732 50.8724 19.4967 50.8348 18.5759L50.7502 16.2926C50.7127 15.2779 50.4777 14.5919 50.0455 14.2349C49.6321 13.8591 48.9556 13.6711 48.016 13.6711H45.0844V20.6054H39.4468V0.535483H49.3126C51.8684 0.535483 53.757 1.08985 54.9785 2.19858C56.1811 3.3261 56.7825 4.7543 56.7825 6.48317C56.7825 7.51673 56.51 8.44694 55.965 9.27379C55.4389 10.1006 54.6684 10.7396 53.6536 11.1906C54.6684 11.5664 55.3637 12.1114 55.7395 12.8255C56.1342 13.5396 56.3597 14.5638 56.416 15.898ZM45.0844 4.93282V9.55567H48.467C50.1395 9.55567 50.9757 8.7852 50.9757 7.24425C50.9757 5.7033 50.1395 4.93282 48.467 4.93282H45.0844Z" fill="white"></path>
  <path d="M57.7537 0.535483H75.2303V5.55296H69.3108V20.6054H63.6732V5.55296H57.7537V0.535483Z" fill="white"></path>
  <path d="M94.1352 13.3892V9.10466H103.635V20.6054H99.801L99.2373 17.9839C98.6171 18.9799 97.7339 19.741 96.5876 20.2671C95.4413 20.7933 94.1634 21.0564 92.754 21.0564C89.8224 21.0564 87.4828 20.1074 85.7352 18.2094C83.9687 16.3302 83.0855 13.7839 83.0855 10.5704C83.0855 7.357 84.0063 4.80128 85.8479 2.90328C87.6708 1.02408 90.2171 0.0844727 93.4869 0.0844727C96.2117 0.0844727 98.4574 0.732799 100.224 2.02945C102.028 3.34489 103.08 5.13014 103.381 7.38519H97.6305C97.048 5.73149 95.6856 4.90464 93.5433 4.90464C92.0963 4.90464 90.9688 5.40263 90.1607 6.39861C89.3526 7.39458 88.9486 8.7852 88.9486 10.5704C88.9486 12.3557 89.3714 13.7463 90.2171 14.7423C91.0815 15.7383 92.2936 16.2362 93.8533 16.2362C94.8493 16.2362 95.7044 15.9826 96.4185 15.4752C97.1514 14.949 97.6212 14.2537 97.8279 13.3892H94.1352Z" fill="white"></path>
  <path d="M123.509 18.1812C121.573 20.098 119.027 21.0564 115.87 21.0564C112.713 21.0564 110.167 20.098 108.231 18.1812C106.295 16.302 105.328 13.7651 105.328 10.5704C105.328 7.39458 106.295 4.84826 108.231 2.93147C110.185 1.03347 112.732 0.0844727 115.87 0.0844727C119.008 0.0844727 121.555 1.03347 123.509 2.93147C125.445 4.84826 126.412 7.39458 126.412 10.5704C126.412 13.7651 125.445 16.302 123.509 18.1812ZM112.459 14.6859C113.305 15.6819 114.442 16.1799 115.87 16.1799C117.298 16.1799 118.435 15.6819 119.281 14.6859C120.126 13.7087 120.549 12.3369 120.549 10.5704C120.549 8.84157 120.126 7.47915 119.281 6.48317C118.435 5.4684 117.298 4.96101 115.87 4.96101C114.442 4.96101 113.305 5.4684 112.459 6.48317C111.614 7.47915 111.191 8.84157 111.191 10.5704C111.191 12.3369 111.614 13.7087 112.459 14.6859Z" fill="white"></path>
  <path d="M126.407 0.535483H143.884V5.55296H137.964V20.6054H132.327V5.55296H126.407V0.535483Z" fill="white"></path>
  <path d="M144.713 0.535483H162.189V5.55296H156.27V20.6054H150.632V5.55296H144.713V0.535483Z" fill="white"></path>
  <path d="M179.712 0.535483V5.55296H169.508V8.20264H178.81V12.8819H169.508V15.5879H179.712V20.6054H163.871V0.535483H179.712Z" fill="white"></path>
  <path d="M194.644 3.8053V0.535483H200V20.6054H194.052L189.796 13.4738C188.65 11.5382 187.729 9.88453 187.033 8.51271C187.127 11.2751 187.174 14.2161 187.174 17.3356V20.6054H181.819V0.535483H187.766L192.023 7.66707C193.038 9.39594 193.958 11.059 194.785 12.6564C194.691 9.89393 194.644 6.94357 194.644 3.8053Z" fill="white"></path>
</svg>