<svg fill="none" xmlns="http://www.w3.org/2000/svg" viewBox="0 0 51 49" style="width: 45px; height: 45px;"><path fill-rule="evenodd" clip-rule="evenodd" d="m6.4 3.4-3 16a4.2 4.2 0 1 0 8.4-.3l1.5-15.7H6.4Zm9.3 18c-.4-.6-.6-1.3-.6-2l1.5-16h6.9v15.9a4.2 4.2 0 0 1-7.8 2.1Zm11.2-2.1a4.2 4.2 0 0 0 8.3 0l-1.5-16H27v16ZM37 3.3l1.5 15.8v.2a4.2 4.2 0 0 0 8.4.1l-3-16H37Zm13.3 16v-.4L47 1.4C46.8.6 46 0 45.3 0H5c-.8 0-1.5.6-1.6 1.4L0 19v.3a7.6 7.6 0 0 0 3.2 6.2v17.2c0 3 2.4 5.5 5.5 5.5h33c3 0 5.5-2.5 5.5-5.5V25.5a7.6 7.6 0 0 0 3.2-6.2ZM6.2 36.7v-10a7.6 7.6 0 0 0 7.2-2.6 7.6 7.6 0 0 0 11.8 0 7.6 7.6 0 0 0 11.7 0 7.6 7.6 0 0 0 7.3 2.6v10a3 3 0 0 0-.5 0h-37a3 3 0 0 0-.5 0Z" fill="#000"></path><path fill-rule="evenodd" clip-rule="evenodd" d="m6.4 3.4-3 16a4.2 4.2 0 1 0 8.4-.3l1.5-15.7H6.4Zm9.3 18c-.4-.6-.6-1.3-.6-2l1.5-16h6.9v15.9a4.2 4.2 0 0 1-7.8 2.1Zm11.2-2.1a4.2 4.2 0 0 0 8.3 0l-1.5-16H27v16ZM37 3.3l1.5 15.8v.2a4.2 4.2 0 0 0 8.4.1l-3-16H37Zm13.3 16v-.4L47 1.4C46.8.6 46 0 45.3 0H5c-.8 0-1.5.6-1.6 1.4L0 19v.3a7.6 7.6 0 0 0 3.2 6.2v17.2c0 3 2.4 5.5 5.5 5.5h33c3 0 5.5-2.5 5.5-5.5V25.5a7.6 7.6 0 0 0 3.2-6.2ZM6.2 36.7v-10a7.6 7.6 0 0 0 7.2-2.6 7.6 7.6 0 0 0 11.8 0 7.6 7.6 0 0 0 11.7 0 7.6 7.6 0 0 0 7.3 2.6v10a3 3 0 0 0-.5 0h-37a3 3 0 0 0-.5 0Z" fill="#FDCA01"></path><path fill-rule="evenodd" clip-rule="evenodd" d="m6.4 3.4-3 16a4.2 4.2 0 1 0 8.4-.3l1.5-15.7H6.4Zm9.3 18c-.4-.6-.6-1.3-.6-2l1.5-16h6.9v15.9a4.2 4.2 0 0 1-7.8 2.1Zm11.2-2.1a4.2 4.2 0 0 0 8.3 0l-1.5-16H27v16ZM37 3.3l1.5 15.8v.2a4.2 4.2 0 0 0 8.4.1l-3-16H37Zm13.3 16v-.4L47 1.4C46.8.6 46 0 45.3 0H5c-.8 0-1.5.6-1.6 1.4L0 19v.3a7.6 7.6 0 0 0 3.2 6.2v17.2c0 3 2.4 5.5 5.5 5.5h33c3 0 5.5-2.5 5.5-5.5V25.5a7.6 7.6 0 0 0 3.2-6.2ZM6.2 36.7v-10a7.6 7.6 0 0 0 7.2-2.6 7.6 7.6 0 0 0 11.8 0 7.6 7.6 0 0 0 11.7 0 7.6 7.6 0 0 0 7.3 2.6v10a3 3 0 0 0-.5 0h-37a3 3 0 0 0-.5 0Z" fill="url(#g)"></path> <defs><linearGradient id="g" x1="24.6" y1="-9.2" x2="24.6" y2="33.3" gradientUnits="userSpaceOnUse"><stop stop-color="#fff"></stop> <stop offset="1" stop-color="#fff" stop-opacity="0"></stop></linearGradient></defs></svg>