<svg fill="none" xmlns="http://www.w3.org/2000/svg" viewBox="0 0 42 42" style="width: 45px; height: 45px;"><path d="M25.8 34a3.2 3.2 0 1 0 0-6.5 3.2 3.2 0 0 0 0 6.4Z" fill="#FDCA01"></path><path d="M25.8 34a3.2 3.2 0 1 0 0-6.5 3.2 3.2 0 0 0 0 6.4Z" fill="url(#ca)"></path><path d="M38.8 21h-5.3l-1-2.6a3.2 3.2 0 0 0-3-2.2h-7.3a3.2 3.2 0 0 0-3.1 2.2l-.9 2.6H13a3.2 3.2 0 0 0-3.2 3.2v14.6a3.2 3.2 0 0 0 3.2 3.2h25.9a3.2 3.2 0 0 0 3.2-3.2V24.2a3.2 3.2 0 0 0-3.2-3.2Zm-13 16.2a6.5 6.5 0 1 1 0-13 6.5 6.5 0 0 1 0 13Z" fill="#FDCA01"></path><path d="M38.8 21h-5.3l-1-2.6a3.2 3.2 0 0 0-3-2.2h-7.3a3.2 3.2 0 0 0-3.1 2.2l-.9 2.6H13a3.2 3.2 0 0 0-3.2 3.2v14.6a3.2 3.2 0 0 0 3.2 3.2h25.9a3.2 3.2 0 0 0 3.2-3.2V24.2a3.2 3.2 0 0 0-3.2-3.2Zm-13 16.2a6.5 6.5 0 1 1 0-13 6.5 6.5 0 0 1 0 13Z" fill="url(#cb)"></path><path d="M38.8 14.5c0-.9.7-1.6 1.6-1.6.9 0 1.6.7 1.6 1.6 0 1-.7 1.7-1.6 1.7-1 0-1.6-.8-1.6-1.7Zm0-6.4c0-1 .7-1.6 1.6-1.6.9 0 1.6.7 1.6 1.6 0 .9-.7 1.6-1.6 1.6-1 0-1.6-.7-1.6-1.6Zm0-6.5c0-.9.7-1.6 1.6-1.6.9 0 1.6.7 1.6 1.6 0 1-.7 1.6-1.6 1.6-1 0-1.6-.7-1.6-1.6Zm-6.5 0C32.3.7 33 0 34 0c1 0 1.6.7 1.6 1.6 0 1-.7 1.6-1.6 1.6-.9 0-1.6-.7-1.6-1.6Zm-6.5 0c0-.9.8-1.6 1.7-1.6.9 0 1.6.7 1.6 1.6 0 1-.7 1.6-1.6 1.6-1 0-1.7-.7-1.7-1.6Zm-6.4 0C19.4.7 20 0 21 0c.9 0 1.6.7 1.6 1.6 0 1-.7 1.6-1.6 1.6-.9 0-1.6-.7-1.6-1.6Zm-6.5 0c0-.9.7-1.6 1.6-1.6 1 0 1.7.7 1.7 1.6 0 1-.8 1.6-1.7 1.6-.9 0-1.6-.7-1.6-1.6Zm-6.4 0C6.5.7 7.2 0 8 0 9 0 9.7.7 9.7 1.6c0 1-.7 1.6-1.6 1.6-1 0-1.6-.7-1.6-1.6ZM0 1.6C0 .7.7 0 1.6 0c1 0 1.6.7 1.6 1.6 0 1-.7 1.6-1.6 1.6C.7 3.2 0 2.5 0 1.6Zm0 6.5c0-1 .7-1.6 1.6-1.6 1 0 1.6.7 1.6 1.6 0 .9-.7 1.6-1.6 1.6C.7 9.7 0 9 0 8Zm0 6.4c0-.9.7-1.6 1.6-1.6 1 0 1.6.7 1.6 1.6 0 1-.7 1.7-1.6 1.7-.9 0-1.6-.8-1.6-1.7ZM0 21c0-.9.7-1.6 1.6-1.6 1 0 1.6.7 1.6 1.6 0 .9-.7 1.6-1.6 1.6C.7 22.6 0 22 0 21Zm0 6.5c0-1 .7-1.7 1.6-1.7 1 0 1.6.8 1.6 1.7 0 .9-.7 1.6-1.6 1.6-.9 0-1.6-.7-1.6-1.6Zm0 6.4c0-.9.7-1.6 1.6-1.6 1 0 1.6.7 1.6 1.6 0 1-.7 1.6-1.6 1.6-.9 0-1.6-.7-1.6-1.6Zm0 6.5c0-1 .7-1.6 1.6-1.6 1 0 1.6.7 1.6 1.6 0 .9-.7 1.6-1.6 1.6-.9 0-1.6-.7-1.6-1.6Z" fill="#FDCA01"></path><path d="M38.8 14.5c0-.9.7-1.6 1.6-1.6.9 0 1.6.7 1.6 1.6 0 1-.7 1.7-1.6 1.7-1 0-1.6-.8-1.6-1.7Zm0-6.4c0-1 .7-1.6 1.6-1.6.9 0 1.6.7 1.6 1.6 0 .9-.7 1.6-1.6 1.6-1 0-1.6-.7-1.6-1.6Zm0-6.5c0-.9.7-1.6 1.6-1.6.9 0 1.6.7 1.6 1.6 0 1-.7 1.6-1.6 1.6-1 0-1.6-.7-1.6-1.6Zm-6.5 0C32.3.7 33 0 34 0c1 0 1.6.7 1.6 1.6 0 1-.7 1.6-1.6 1.6-.9 0-1.6-.7-1.6-1.6Zm-6.5 0c0-.9.8-1.6 1.7-1.6.9 0 1.6.7 1.6 1.6 0 1-.7 1.6-1.6 1.6-1 0-1.7-.7-1.7-1.6Zm-6.4 0C19.4.7 20 0 21 0c.9 0 1.6.7 1.6 1.6 0 1-.7 1.6-1.6 1.6-.9 0-1.6-.7-1.6-1.6Zm-6.5 0c0-.9.7-1.6 1.6-1.6 1 0 1.7.7 1.7 1.6 0 1-.8 1.6-1.7 1.6-.9 0-1.6-.7-1.6-1.6Zm-6.4 0C6.5.7 7.2 0 8 0 9 0 9.7.7 9.7 1.6c0 1-.7 1.6-1.6 1.6-1 0-1.6-.7-1.6-1.6ZM0 1.6C0 .7.7 0 1.6 0c1 0 1.6.7 1.6 1.6 0 1-.7 1.6-1.6 1.6C.7 3.2 0 2.5 0 1.6Zm0 6.5c0-1 .7-1.6 1.6-1.6 1 0 1.6.7 1.6 1.6 0 .9-.7 1.6-1.6 1.6C.7 9.7 0 9 0 8Zm0 6.4c0-.9.7-1.6 1.6-1.6 1 0 1.6.7 1.6 1.6 0 1-.7 1.7-1.6 1.7-.9 0-1.6-.8-1.6-1.7ZM0 21c0-.9.7-1.6 1.6-1.6 1 0 1.6.7 1.6 1.6 0 .9-.7 1.6-1.6 1.6C.7 22.6 0 22 0 21Zm0 6.5c0-1 .7-1.7 1.6-1.7 1 0 1.6.8 1.6 1.7 0 .9-.7 1.6-1.6 1.6-.9 0-1.6-.7-1.6-1.6Zm0 6.4c0-.9.7-1.6 1.6-1.6 1 0 1.6.7 1.6 1.6 0 1-.7 1.6-1.6 1.6-.9 0-1.6-.7-1.6-1.6Zm0 6.5c0-1 .7-1.6 1.6-1.6 1 0 1.6.7 1.6 1.6 0 .9-.7 1.6-1.6 1.6-.9 0-1.6-.7-1.6-1.6Z" fill="url(#cc)"></path> <defs><linearGradient id="ca" x1="23.5" y1="25.6" x2="26.9" y2="33.3" gradientUnits="userSpaceOnUse"><stop stop-color="#fff"></stop> <stop offset="1" stop-color="#fff" stop-opacity="0"></stop></linearGradient> <linearGradient id="cb" x1="14.3" y1="8.8" x2="25.8" y2="41.4" gradientUnits="userSpaceOnUse"><stop stop-color="#fff"></stop> <stop offset="1" stop-color="#fff" stop-opacity="0"></stop></linearGradient> <linearGradient id="cc" x1="6" y1="-12" x2="28" y2="38" gradientUnits="userSpaceOnUse"><stop stop-color="#fff"></stop> <stop offset="1" stop-color="#fff" stop-opacity="0"></stop></linearGradient></defs></svg>