<svg width="23" height="30" viewBox="0 0 23 30" fill="none" xmlns="http://www.w3.org/2000/svg">
<path fill-rule="evenodd" clip-rule="evenodd" d="M21.1538 14.0683C21.1597 14.1171 21.1597 14.1664 21.1538 14.2153L21.2126 14.2888C21.9059 15.9638 22.1753 17.784 21.9972 19.588C21.8191 21.3921 21.1989 23.1244 20.1915 24.6315C19.1841 26.1387 17.8206 27.3742 16.2218 28.2286C14.623 29.083 12.8381 29.53 11.0253 29.53C9.21246 29.53 7.42761 29.083 5.82877 28.2286C4.22993 27.3742 2.86645 26.1387 1.85906 24.6315C0.851674 23.1244 0.231462 21.3921 0.053348 19.588C-0.124766 17.784 0.144714 15.9638 0.837925 14.2888C0.83207 14.2399 0.83207 14.1906 0.837925 14.1418C1.90381 11.5106 3.95599 9.40043 6.55637 8.26161V2.94008H5.08633C4.69646 2.94008 4.32255 2.7852 4.04686 2.50951C3.77118 2.23383 3.6163 1.85992 3.6163 1.47004C3.6163 1.08016 3.77118 0.70625 4.04686 0.430564C4.32255 0.154878 4.69646 0 5.08633 0H16.8466C17.2365 0 17.6104 0.154878 17.8861 0.430564C18.1618 0.70625 18.3167 1.08016 18.3167 1.47004C18.3167 1.85992 18.1618 2.23383 17.8861 2.50951C17.6104 2.7852 17.2365 2.94008 16.8466 2.94008H15.3766V8.26161C17.9853 9.37052 20.0582 11.4539 21.1538 14.0683ZM9.21583 10.1387C9.03365 10.3896 8.77685 10.5764 8.48212 10.6725C7.01678 11.147 5.72001 12.0353 4.74823 13.2303H17.1847C16.213 12.0353 14.9162 11.147 13.4508 10.6725C13.1561 10.5764 12.8993 10.3896 12.7171 10.1387C12.535 9.88793 12.4368 9.58594 12.4365 9.27594V2.94008H9.49645V9.27594C9.49622 9.58594 9.398 9.88793 9.21583 10.1387ZM8.02619 19.1108C7.73545 19.1108 7.45123 19.1971 7.20948 19.3586C6.96773 19.5201 6.77932 19.7497 6.66805 20.0183C6.55679 20.2869 6.52768 20.5825 6.5844 20.8677C6.64112 21.1528 6.78113 21.4148 6.98672 21.6204C7.19231 21.8259 7.45424 21.9659 7.7394 22.0227C8.02456 22.0794 8.32014 22.0503 8.58875 21.939C8.85736 21.8278 9.08695 21.6393 9.24848 21.3976C9.41001 21.1558 9.49623 20.8716 9.49623 20.5809C9.49623 20.191 9.34135 19.8171 9.06566 19.5414C8.78998 19.2657 8.41607 19.1108 8.02619 19.1108ZM13.9063 20.5809C13.6156 20.5809 13.3314 20.6671 13.0896 20.8286C12.8479 20.9902 12.6595 21.2197 12.5482 21.4884C12.4369 21.757 12.4078 22.0525 12.4646 22.3377C12.5213 22.6229 12.6613 22.8848 12.8669 23.0904C13.0725 23.296 13.3344 23.436 13.6196 23.4927C13.9047 23.5494 14.2003 23.5203 14.4689 23.4091C14.7375 23.2978 14.9671 23.1094 15.1286 22.8676C15.2902 22.6259 15.3764 22.3417 15.3764 22.0509C15.3764 21.661 15.2215 21.2871 14.9458 21.0114C14.6701 20.7358 14.2962 20.5809 13.9063 20.5809Z" fill="#FDCA01"/>
</svg>
