<svg width="45" height="45" viewBox="0 0 45 45" fill="none" xmlns="http://www.w3.org/2000/svg">
<path d="M45 31.5V4.5C45 2.025 42.975 0 40.5 0H13.5C11.025 0 9 2.025 9 4.5V31.5C9 33.975 11.025 36 13.5 36H40.5C42.975 36 45 33.975 45 31.5ZM21.15 23.6925L24.8175 28.5975L30.6225 21.3525C30.7279 21.2211 30.8615 21.1151 31.0134 21.0422C31.1652 20.9693 31.3315 20.9315 31.5 20.9315C31.6685 20.9315 31.8348 20.9693 31.9866 21.0422C32.1385 21.1151 32.2721 21.2211 32.3775 21.3525L39.0375 29.6775C39.6225 30.42 39.105 31.5 38.16 31.5H15.75C15.5411 31.5 15.3363 31.4418 15.1586 31.332C14.9808 31.2221 14.8372 31.065 14.7438 30.8781C14.6503 30.6912 14.6108 30.482 14.6295 30.274C14.6483 30.0659 14.7246 29.8671 14.85 29.7L19.35 23.6925C19.8 23.1075 20.7 23.1075 21.15 23.6925ZM0 11.25V40.5C0 42.975 2.025 45 4.5 45H33.75C34.9875 45 36 43.9875 36 42.75C36 41.5125 34.9875 40.5 33.75 40.5H6.75C5.5125 40.5 4.5 39.4875 4.5 38.25V11.25C4.5 10.0125 3.4875 9 2.25 9C1.0125 9 0 10.0125 0 11.25Z" fill="black"/>
<path d="M45 31.5V4.5C45 2.025 42.975 0 40.5 0H13.5C11.025 0 9 2.025 9 4.5V31.5C9 33.975 11.025 36 13.5 36H40.5C42.975 36 45 33.975 45 31.5ZM21.15 23.6925L24.8175 28.5975L30.6225 21.3525C30.7279 21.2211 30.8615 21.1151 31.0134 21.0422C31.1652 20.9693 31.3315 20.9315 31.5 20.9315C31.6685 20.9315 31.8348 20.9693 31.9866 21.0422C32.1385 21.1151 32.2721 21.2211 32.3775 21.3525L39.0375 29.6775C39.6225 30.42 39.105 31.5 38.16 31.5H15.75C15.5411 31.5 15.3363 31.4418 15.1586 31.332C14.9808 31.2221 14.8372 31.065 14.7438 30.8781C14.6503 30.6912 14.6108 30.482 14.6295 30.274C14.6483 30.0659 14.7246 29.8671 14.85 29.7L19.35 23.6925C19.8 23.1075 20.7 23.1075 21.15 23.6925ZM0 11.25V40.5C0 42.975 2.025 45 4.5 45H33.75C34.9875 45 36 43.9875 36 42.75C36 41.5125 34.9875 40.5 33.75 40.5H6.75C5.5125 40.5 4.5 39.4875 4.5 38.25V11.25C4.5 10.0125 3.4875 9 2.25 9C1.0125 9 0 10.0125 0 11.25Z" fill="#FDCA01"/>
<path d="M45 31.5V4.5C45 2.025 42.975 0 40.5 0H13.5C11.025 0 9 2.025 9 4.5V31.5C9 33.975 11.025 36 13.5 36H40.5C42.975 36 45 33.975 45 31.5ZM21.15 23.6925L24.8175 28.5975L30.6225 21.3525C30.7279 21.2211 30.8615 21.1151 31.0134 21.0422C31.1652 20.9693 31.3315 20.9315 31.5 20.9315C31.6685 20.9315 31.8348 20.9693 31.9866 21.0422C32.1385 21.1151 32.2721 21.2211 32.3775 21.3525L39.0375 29.6775C39.6225 30.42 39.105 31.5 38.16 31.5H15.75C15.5411 31.5 15.3363 31.4418 15.1586 31.332C14.9808 31.2221 14.8372 31.065 14.7438 30.8781C14.6503 30.6912 14.6108 30.482 14.6295 30.274C14.6483 30.0659 14.7246 29.8671 14.85 29.7L19.35 23.6925C19.8 23.1075 20.7 23.1075 21.15 23.6925ZM0 11.25V40.5C0 42.975 2.025 45 4.5 45H33.75C34.9875 45 36 43.9875 36 42.75C36 41.5125 34.9875 40.5 33.75 40.5H6.75C5.5125 40.5 4.5 39.4875 4.5 38.25V11.25C4.5 10.0125 3.4875 9 2.25 9C1.0125 9 0 10.0125 0 11.25Z" fill="url(#paint0_linear_2_350)"/>
<defs>
<linearGradient id="paint0_linear_2_350" x1="6.42857" y1="-12.8571" x2="30" y2="40.7143" gradientUnits="userSpaceOnUse">
<stop stop-color="white"/>
<stop offset="1" stop-color="white" stop-opacity="0"/>
</linearGradient>
</defs>
</svg>
