<svg fill="none" xmlns="http://www.w3.org/2000/svg" viewBox="0 0 49 49" style="width: 45px; height: 45px;"><path fill-rule="evenodd" clip-rule="evenodd" d="M47 24.5a22.5 22.5 0 1 1-45 0 22.5 22.5 0 0 1 45 0Zm2 0a24.5 24.5 0 1 1-49 0 24.5 24.5 0 0 1 49 0Zm-26.6 0c0-1.2 1-2.1 2.1-2.1 1.2 0 2.1 1 2.1 2.1 0 1.2-1 2.1-2.1 2.1-1.2 0-2.1-1-2.1-2.1ZM5 24.5a19.5 19.5 0 1 1 39 0 19.5 19.5 0 0 1-39 0Zm7.8 11.7 16-7.4 7.4-16-16 7.4-7.4 16Z" fill="#FDCA01"></path><path fill-rule="evenodd" clip-rule="evenodd" d="M47 24.5a22.5 22.5 0 1 1-45 0 22.5 22.5 0 0 1 45 0Zm2 0a24.5 24.5 0 1 1-49 0 24.5 24.5 0 0 1 49 0Zm-26.6 0c0-1.2 1-2.1 2.1-2.1 1.2 0 2.1 1 2.1 2.1 0 1.2-1 2.1-2.1 2.1-1.2 0-2.1-1-2.1-2.1ZM5 24.5a19.5 19.5 0 1 1 39 0 19.5 19.5 0 0 1-39 0Zm7.8 11.7 16-7.4 7.4-16-16 7.4-7.4 16Z" fill="url(#f)"></path> <defs><linearGradient id="f" x1="7" y1="-14" x2="32.7" y2="44.3" gradientUnits="userSpaceOnUse"><stop stop-color="#fff"></stop> <stop offset="1" stop-color="#fff" stop-opacity="0"></stop></linearGradient></defs></svg>