<svg fill="none" xmlns="http://www.w3.org/2000/svg" viewBox="0 0 47 47" style="width: 45px; height: 45px;"><path d="M7 23.5H4.8v18.8A4.7 4.7 0 0 0 9.4 47h11.7V23.5h-14Zm30.6 0H25.8V47h11.8a4.7 4.7 0 0 0 4.7-4.7V23.5h-4.7Zm1.9-11.8c.3-1 .5-2.3.5-3.5C40 3.7 36.3 0 31.7 0c-3.8 0-6.3 3.5-8 7.2C22.1 3.7 19.4 0 15.3 0A8.2 8.2 0 0 0 7 8.2c0 1.4.2 2.6.5 3.6H0V21h21.1v-4.7H26v4.8H47v-9.4h-7.5ZM11.7 8.3c0-2 1.6-3.5 3.6-3.5s4 3.6 5.1 7h-6.3c-.9 0-2.3 0-2.3-3.5Zm20-3.5c2 0 3.6 1.6 3.6 3.5 0 3.6-1.5 3.6-2.4 3.6h-5.8c1.2-3.8 3-7.1 4.6-7.1Z" fill="#FDCA01"></path><path d="M7 23.5H4.8v18.8A4.7 4.7 0 0 0 9.4 47h11.7V23.5h-14Zm30.6 0H25.8V47h11.8a4.7 4.7 0 0 0 4.7-4.7V23.5h-4.7Zm1.9-11.8c.3-1 .5-2.3.5-3.5C40 3.7 36.3 0 31.7 0c-3.8 0-6.3 3.5-8 7.2C22.1 3.7 19.4 0 15.3 0A8.2 8.2 0 0 0 7 8.2c0 1.4.2 2.6.5 3.6H0V21h21.1v-4.7H26v4.8H47v-9.4h-7.5ZM11.7 8.3c0-2 1.6-3.5 3.6-3.5s4 3.6 5.1 7h-6.3c-.9 0-2.3 0-2.3-3.5Zm20-3.5c2 0 3.6 1.6 3.6 3.5 0 3.6-1.5 3.6-2.4 3.6h-5.8c1.2-3.8 3-7.1 4.6-7.1Z" fill="url(#d)"></path> <defs><linearGradient id="d" x1="23" y1="-9" x2="23" y2="32.5" gradientUnits="userSpaceOnUse"><stop stop-color="#fff"></stop> <stop offset="1" stop-color="#fff" stop-opacity="0"></stop></linearGradient></defs></svg>