<svg fill="none" xmlns="http://www.w3.org/2000/svg" viewBox="0 0 48 45" style="width: 45px; height: 45px;"><path d="M13.3 18h-1.5A15.3 15.3 0 0 0 .4 22.3l-.4.5v14.6h7.2v-8.3l1-1 .4-.6c2.3-2.4 5.2-4.1 8.4-5a11.7 11.7 0 0 1-3.7-4.7Z" fill="#FDCA01"></path><path d="M13.3 18h-1.5A15.3 15.3 0 0 0 .4 22.3l-.4.5v14.6h7.2v-8.3l1-1 .4-.6c2.3-2.4 5.2-4.1 8.4-5a11.7 11.7 0 0 1-3.7-4.7Z" fill="url(#ea)"></path><path d="M47.5 22.3A15.3 15.3 0 0 0 36.2 18h-2c-.8 1.8-2 3.3-3.5 4.4 3.4 1 6.4 2.8 8.9 5.3l.4.5 1 1.1v8.3h7V22.8l-.5-.5Z" fill="#FDCA01"></path><path d="M47.5 22.3A15.3 15.3 0 0 0 36.2 18h-2c-.8 1.8-2 3.3-3.5 4.4 3.4 1 6.4 2.8 8.9 5.3l.4.5 1 1.1v8.3h7V22.8l-.5-.5Z" fill="url(#eb)"></path><path d="M11.7 14.5h.6a11.4 11.4 0 0 1 5.5-11.1 7.2 7.2 0 1 0-6 11.1Z" fill="#FDCA01"></path><path d="M11.7 14.5h.6a11.4 11.4 0 0 1 5.5-11.1 7.2 7.2 0 1 0-6 11.1Z" fill="url(#ec)"></path><path d="M35.3 13.2v1.2h1.4A7.2 7.2 0 1 0 30 3.6a11.6 11.6 0 0 1 5.2 9.7Z" fill="#FDCA01"></path><path d="M35.3 13.2v1.2h1.4A7.2 7.2 0 1 0 30 3.6a11.6 11.6 0 0 1 5.2 9.7Z" fill="url(#ed)"></path><path d="M23.7 21a8 8 0 1 0 0-15.7 8 8 0 0 0 0 15.8Z" fill="#FDCA01"></path><path d="M23.7 21a8 8 0 1 0 0-15.7 8 8 0 0 0 0 15.8Z" fill="url(#ee)"></path><path d="M24.1 25.3A17.1 17.1 0 0 0 11.6 30l-.5.5v11.2a2.8 2.8 0 0 0 2.9 2.7h20.3a2.8 2.8 0 0 0 2.8-2.7V30.6l-.4-.5A17 17 0 0 0 24 25.3Z" fill="#FDCA01"></path><path d="M24.1 25.3A17.1 17.1 0 0 0 11.6 30l-.5.5v11.2a2.8 2.8 0 0 0 2.9 2.7h20.3a2.8 2.8 0 0 0 2.8-2.7V30.6l-.4-.5A17 17 0 0 0 24 25.3Z" fill="url(#ef)"></path> <defs><linearGradient id="ea" x1="2.4" y1="12.3" x2="13.7" y2="34.5" gradientUnits="userSpaceOnUse"><stop stop-color="#fff"></stop> <stop offset="1" stop-color="#fff" stop-opacity="0"></stop></linearGradient> <linearGradient id="eb" x1="33.2" y1="12.2" x2="44.4" y2="34.6" gradientUnits="userSpaceOnUse"><stop stop-color="#fff"></stop> <stop offset="1" stop-color="#fff" stop-opacity="0"></stop></linearGradient> <linearGradient id="ec" x1="6.4" y1="-4.1" x2="14.4" y2="12.7" gradientUnits="userSpaceOnUse"><stop stop-color="#fff"></stop> <stop offset="1" stop-color="#fff" stop-opacity="0"></stop></linearGradient> <linearGradient id="ed" x1="32" y1="-4.1" x2="40" y2="12.7" gradientUnits="userSpaceOnUse"><stop stop-color="#fff"></stop> <stop offset="1" stop-color="#fff" stop-opacity="0"></stop></linearGradient> <linearGradient id="ee" x1="18.1" y1=".7" x2="26.4" y2="19.6" gradientUnits="userSpaceOnUse"><stop stop-color="#fff"></stop> <stop offset="1" stop-color="#fff" stop-opacity="0"></stop></linearGradient> <linearGradient id="ef" x1="14.8" y1="19.8" x2="22.9" y2="44.5" gradientUnits="userSpaceOnUse"><stop stop-color="#fff"></stop> <stop offset="1" stop-color="#fff" stop-opacity="0"></stop></linearGradient></defs></svg>